<svg xmlns="http://www.w3.org/2000/svg" viewBox="0 0 900 450" role="img" aria-hidden="true">
<defs>
<linearGradient id="dotGradient" gradientUnits="userSpaceOnUse" x1="0" y1="0" x2="900" y2="450">
<stop offset="0%" stop-color="#a8471f" />
<stop offset="55%" stop-color="#241f1a" />
<stop offset="100%" stop-color="#16636b" />
</linearGradient>
</defs>
<rect x="0" y="0" width="900" height="450" rx="26" fill="#fbf7f1" />
<g fill="url(#dotGradient)">
<circle cx="316.0" cy="27.1" r="4.1" />
<circle cx="327.0" cy="27.1" r="4.1" />
<circle cx="338.0" cy="27.1" r="4.1" />
<circle cx="349.0" cy="27.1" r="4.1" />
<circle cx="360.0" cy="27.1" r="4.1" />
<circle cx="371.0" cy="27.1" r="4.1" />
<circle cx="310.5" cy="36.7" r="4.1" />
<circle cx="321.5" cy="36.7" r="4.1" />
<circle cx="332.5" cy="36.7" r="4.1" />
<circle cx="343.5" cy="36.7" r="4.1" />
<circle cx="354.5" cy="36.7" r="4.1" />
<circle cx="365.5" cy="36.7" r="4.1" />
<circle cx="376.5" cy="36.7" r="4.1" />
<circle cx="387.5" cy="36.7" r="4.1" />
<circle cx="316.0" cy="46.3" r="4.1" />
<circle cx="327.0" cy="46.3" r="4.1" />
<circle cx="338.0" cy="46.3" r="4.1" />
<circle cx="349.0" cy="46.3" r="4.1" />
<circle cx="360.0" cy="46.3" r="4.1" />
<circle cx="371.0" cy="46.3" r="4.1" />
<circle cx="382.0" cy="46.3" r="4.1" />
<circle cx="393.0" cy="46.3" r="4.1" />
<circle cx="624.0" cy="46.3" r="4.1" />
<circle cx="635.0" cy="46.3" r="4.1" />
<circle cx="646.0" cy="46.3" r="4.1" />
<circle cx="657.0" cy="46.3" r="4.1" />
<circle cx="668.0" cy="46.3" r="4.1" />
<circle cx="679.0" cy="46.3" r="4.1" />
<circle cx="690.0" cy="46.3" r="4.1" />
<circle cx="701.0" cy="46.3" r="4.1" />
<circle cx="712.0" cy="46.3" r="4.1" />
<circle cx="723.0" cy="46.3" r="4.1" />
<circle cx="734.0" cy="46.3" r="4.1" />
<circle cx="745.0" cy="46.3" r="4.1" />
<circle cx="756.0" cy="46.3" r="4.1" />
<circle cx="767.0" cy="46.3" r="4.1" />
<circle cx="778.0" cy="46.3" r="4.1" />
<circle cx="789.0" cy="46.3" r="4.1" />
<circle cx="800.0" cy="46.3" r="4.1" />
<circle cx="811.0" cy="46.3" r="4.1" />
<circle cx="46.5" cy="55.9" r="4.1" />
<circle cx="57.5" cy="55.9" r="4.1" />
<circle cx="68.5" cy="55.9" r="4.1" />
<circle cx="79.5" cy="55.9" r="4.1" />
<circle cx="90.5" cy="55.9" r="4.1" />
<circle cx="101.5" cy="55.9" r="4.1" />
<circle cx="112.5" cy="55.9" r="4.1" />
<circle cx="123.5" cy="55.9" r="4.1" />
<circle cx="134.5" cy="55.9" r="4.1" />
<circle cx="145.5" cy="55.9" r="4.1" />
<circle cx="156.5" cy="55.9" r="4.1" />
<circle cx="167.5" cy="55.9" r="4.1" />
<circle cx="178.5" cy="55.9" r="4.1" />
<circle cx="189.5" cy="55.9" r="4.1" />
<circle cx="200.5" cy="55.9" r="4.1" />
<circle cx="211.5" cy="55.9" r="4.1" />
<circle cx="321.5" cy="55.9" r="4.1" />
<circle cx="332.5" cy="55.9" r="4.1" />
<circle cx="343.5" cy="55.9" r="4.1" />
<circle cx="354.5" cy="55.9" r="4.1" />
<circle cx="365.5" cy="55.9" r="4.1" />
<circle cx="376.5" cy="55.9" r="4.1" />
<circle cx="387.5" cy="55.9" r="4.1" />
<circle cx="486.5" cy="55.9" r="4.1" />
<circle cx="497.5" cy="55.9" r="4.1" />
<circle cx="508.5" cy="55.9" r="4.1" />
<circle cx="585.5" cy="55.9" r="4.1" />
<circle cx="596.5" cy="55.9" r="4.1" />
<circle cx="607.5" cy="55.9" r="4.1" />
<circle cx="618.5" cy="55.9" r="4.1" />
<circle cx="629.5" cy="55.9" r="4.1" />
<circle cx="640.5" cy="55.9" r="4.1" />
<circle cx="651.5" cy="55.9" r="4.1" />
<circle cx="662.5" cy="55.9" r="4.1" />
<circle cx="673.5" cy="55.9" r="4.1" />
<circle cx="684.5" cy="55.9" r="4.1" />
<circle cx="695.5" cy="55.9" r="4.1" />
<circle cx="706.5" cy="55.9" r="4.1" />
<circle cx="717.5" cy="55.9" r="4.1" />
<circle cx="728.5" cy="55.9" r="4.1" />
<circle cx="739.5" cy="55.9" r="4.1" />
<circle cx="750.5" cy="55.9" r="4.1" />
<circle cx="761.5" cy="55.9" r="4.1" />
<circle cx="772.5" cy="55.9" r="4.1" />
<circle cx="783.5" cy="55.9" r="4.1" />
<circle cx="794.5" cy="55.9" r="4.1" />
<circle cx="805.5" cy="55.9" r="4.1" />
<circle cx="816.5" cy="55.9" r="4.1" />
<circle cx="827.5" cy="55.9" r="4.1" />
<circle cx="838.5" cy="55.9" r="4.1" />
<circle cx="849.5" cy="55.9" r="4.1" />
<circle cx="41.0" cy="65.4" r="4.1" />
<circle cx="52.0" cy="65.4" r="4.1" />
<circle cx="63.0" cy="65.4" r="4.1" />
<circle cx="74.0" cy="65.4" r="4.1" />
<circle cx="85.0" cy="65.4" r="4.1" />
<circle cx="96.0" cy="65.4" r="4.1" />
<circle cx="107.0" cy="65.4" r="4.1" />
<circle cx="118.0" cy="65.4" r="4.1" />
<circle cx="129.0" cy="65.4" r="4.1" />
<circle cx="140.0" cy="65.4" r="4.1" />
<circle cx="151.0" cy="65.4" r="4.1" />
<circle cx="162.0" cy="65.4" r="4.1" />
<circle cx="173.0" cy="65.4" r="4.1" />
<circle cx="184.0" cy="65.4" r="4.1" />
<circle cx="195.0" cy="65.4" r="4.1" />
<circle cx="206.0" cy="65.4" r="4.1" />
<circle cx="217.0" cy="65.4" r="4.1" />
<circle cx="228.0" cy="65.4" r="4.1" />
<circle cx="338.0" cy="65.4" r="4.1" />
<circle cx="349.0" cy="65.4" r="4.1" />
<circle cx="360.0" cy="65.4" r="4.1" />
<circle cx="371.0" cy="65.4" r="4.1" />
<circle cx="481.0" cy="65.4" r="4.1" />
<circle cx="492.0" cy="65.4" r="4.1" />
<circle cx="503.0" cy="65.4" r="4.1" />
<circle cx="514.0" cy="65.4" r="4.1" />
<circle cx="525.0" cy="65.4" r="4.1" />
<circle cx="569.0" cy="65.4" r="4.1" />
<circle cx="580.0" cy="65.4" r="4.1" />
<circle cx="591.0" cy="65.4" r="4.1" />
<circle cx="602.0" cy="65.4" r="4.1" />
<circle cx="613.0" cy="65.4" r="4.1" />
<circle cx="624.0" cy="65.4" r="4.1" />
<circle cx="635.0" cy="65.4" r="4.1" />
<circle cx="646.0" cy="65.4" r="4.1" />
<circle cx="657.0" cy="65.4" r="4.1" />
<circle cx="668.0" cy="65.4" r="4.1" />
<circle cx="679.0" cy="65.4" r="4.1" />
<circle cx="690.0" cy="65.4" r="4.1" />
<circle cx="701.0" cy="65.4" r="4.1" />
<circle cx="712.0" cy="65.4" r="4.1" />
<circle cx="723.0" cy="65.4" r="4.1" />
<circle cx="734.0" cy="65.4" r="4.1" />
<circle cx="745.0" cy="65.4" r="4.1" />
<circle cx="756.0" cy="65.4" r="4.1" />
<circle cx="767.0" cy="65.4" r="4.1" />
<circle cx="778.0" cy="65.4" r="4.1" />
<circle cx="789.0" cy="65.4" r="4.1" />
<circle cx="800.0" cy="65.4" r="4.1" />
<circle cx="811.0" cy="65.4" r="4.1" />
<circle cx="822.0" cy="65.4" r="4.1" />
<circle cx="833.0" cy="65.4" r="4.1" />
<circle cx="844.0" cy="65.4" r="4.1" />
<circle cx="855.0" cy="65.4" r="4.1" />
<circle cx="866.0" cy="65.4" r="4.1" />
<circle cx="877.0" cy="65.4" r="4.1" />
<circle cx="888.0" cy="65.4" r="4.1" />
<circle cx="57.5" cy="75.0" r="4.1" />
<circle cx="68.5" cy="75.0" r="4.1" />
<circle cx="79.5" cy="75.0" r="4.1" />
<circle cx="90.5" cy="75.0" r="4.1" />
<circle cx="101.5" cy="75.0" r="4.1" />
<circle cx="112.5" cy="75.0" r="4.1" />
<circle cx="123.5" cy="75.0" r="4.1" />
<circle cx="134.5" cy="75.0" r="4.1" />
<circle cx="145.5" cy="75.0" r="4.1" />
<circle cx="156.5" cy="75.0" r="4.1" />
<circle cx="167.5" cy="75.0" r="4.1" />
<circle cx="178.5" cy="75.0" r="4.1" />
<circle cx="189.5" cy="75.0" r="4.1" />
<circle cx="200.5" cy="75.0" r="4.1" />
<circle cx="211.5" cy="75.0" r="4.1" />
<circle cx="222.5" cy="75.0" r="4.1" />
<circle cx="233.5" cy="75.0" r="4.1" />
<circle cx="244.5" cy="75.0" r="4.1" />
<circle cx="255.5" cy="75.0" r="4.1" />
<circle cx="453.5" cy="75.0" r="4.1" />
<circle cx="464.5" cy="75.0" r="4.1" />
<circle cx="475.5" cy="75.0" r="4.1" />
<circle cx="486.5" cy="75.0" r="4.1" />
<circle cx="497.5" cy="75.0" r="4.1" />
<circle cx="508.5" cy="75.0" r="4.1" />
<circle cx="519.5" cy="75.0" r="4.1" />
<circle cx="530.5" cy="75.0" r="4.1" />
<circle cx="541.5" cy="75.0" r="4.1" />
<circle cx="552.5" cy="75.0" r="4.1" />
<circle cx="563.5" cy="75.0" r="4.1" />
<circle cx="574.5" cy="75.0" r="4.1" />
<circle cx="585.5" cy="75.0" r="4.1" />
<circle cx="596.5" cy="75.0" r="4.1" />
<circle cx="607.5" cy="75.0" r="4.1" />
<circle cx="618.5" cy="75.0" r="4.1" />
<circle cx="629.5" cy="75.0" r="4.1" />
<circle cx="640.5" cy="75.0" r="4.1" />
<circle cx="651.5" cy="75.0" r="4.1" />
<circle cx="662.5" cy="75.0" r="4.1" />
<circle cx="673.5" cy="75.0" r="4.1" />
<circle cx="684.5" cy="75.0" r="4.1" />
<circle cx="695.5" cy="75.0" r="4.1" />
<circle cx="706.5" cy="75.0" r="4.1" />
<circle cx="717.5" cy="75.0" r="4.1" />
<circle cx="728.5" cy="75.0" r="4.1" />
<circle cx="739.5" cy="75.0" r="4.1" />
<circle cx="750.5" cy="75.0" r="4.1" />
<circle cx="761.5" cy="75.0" r="4.1" />
<circle cx="772.5" cy="75.0" r="4.1" />
<circle cx="783.5" cy="75.0" r="4.1" />
<circle cx="794.5" cy="75.0" r="4.1" />
<circle cx="805.5" cy="75.0" r="4.1" />
<circle cx="816.5" cy="75.0" r="4.1" />
<circle cx="827.5" cy="75.0" r="4.1" />
<circle cx="838.5" cy="75.0" r="4.1" />
<circle cx="849.5" cy="75.0" r="4.1" />
<circle cx="860.5" cy="75.0" r="4.1" />
<circle cx="871.5" cy="75.0" r="4.1" />
<circle cx="882.5" cy="75.0" r="4.1" />
<circle cx="893.5" cy="75.0" r="4.1" />
<circle cx="118.0" cy="84.6" r="4.1" />
<circle cx="129.0" cy="84.6" r="4.1" />
<circle cx="140.0" cy="84.6" r="4.1" />
<circle cx="151.0" cy="84.6" r="4.1" />
<circle cx="162.0" cy="84.6" r="4.1" />
<circle cx="173.0" cy="84.6" r="4.1" />
<circle cx="184.0" cy="84.6" r="4.1" />
<circle cx="195.0" cy="84.6" r="4.1" />
<circle cx="206.0" cy="84.6" r="4.1" />
<circle cx="217.0" cy="84.6" r="4.1" />
<circle cx="228.0" cy="84.6" r="4.1" />
<circle cx="239.0" cy="84.6" r="4.1" />
<circle cx="250.0" cy="84.6" r="4.1" />
<circle cx="261.0" cy="84.6" r="4.1" />
<circle cx="437.0" cy="84.6" r="4.1" />
<circle cx="448.0" cy="84.6" r="4.1" />
<circle cx="459.0" cy="84.6" r="4.1" />
<circle cx="470.0" cy="84.6" r="4.1" />
<circle cx="481.0" cy="84.6" r="4.1" />
<circle cx="492.0" cy="84.6" r="4.1" />
<circle cx="503.0" cy="84.6" r="4.1" />
<circle cx="514.0" cy="84.6" r="4.1" />
<circle cx="525.0" cy="84.6" r="4.1" />
<circle cx="536.0" cy="84.6" r="4.1" />
<circle cx="547.0" cy="84.6" r="4.1" />
<circle cx="558.0" cy="84.6" r="4.1" />
<circle cx="569.0" cy="84.6" r="4.1" />
<circle cx="580.0" cy="84.6" r="4.1" />
<circle cx="591.0" cy="84.6" r="4.1" />
<circle cx="602.0" cy="84.6" r="4.1" />
<circle cx="613.0" cy="84.6" r="4.1" />
<circle cx="624.0" cy="84.6" r="4.1" />
<circle cx="635.0" cy="84.6" r="4.1" />
<circle cx="646.0" cy="84.6" r="4.1" />
<circle cx="657.0" cy="84.6" r="4.1" />
<circle cx="668.0" cy="84.6" r="4.1" />
<circle cx="679.0" cy="84.6" r="4.1" />
<circle cx="690.0" cy="84.6" r="4.1" />
<circle cx="701.0" cy="84.6" r="4.1" />
<circle cx="712.0" cy="84.6" r="4.1" />
<circle cx="723.0" cy="84.6" r="4.1" />
<circle cx="734.0" cy="84.6" r="4.1" />
<circle cx="745.0" cy="84.6" r="4.1" />
<circle cx="756.0" cy="84.6" r="4.1" />
<circle cx="767.0" cy="84.6" r="4.1" />
<circle cx="778.0" cy="84.6" r="4.1" />
<circle cx="789.0" cy="84.6" r="4.1" />
<circle cx="800.0" cy="84.6" r="4.1" />
<circle cx="811.0" cy="84.6" r="4.1" />
<circle cx="822.0" cy="84.6" r="4.1" />
<circle cx="833.0" cy="84.6" r="4.1" />
<circle cx="844.0" cy="84.6" r="4.1" />
<circle cx="855.0" cy="84.6" r="4.1" />
<circle cx="866.0" cy="84.6" r="4.1" />
<circle cx="877.0" cy="84.6" r="4.1" />
<circle cx="888.0" cy="84.6" r="4.1" />
<circle cx="134.5" cy="94.1" r="4.1" />
<circle cx="145.5" cy="94.1" r="4.1" />
<circle cx="156.5" cy="94.1" r="4.1" />
<circle cx="167.5" cy="94.1" r="4.1" />
<circle cx="178.5" cy="94.1" r="4.1" />
<circle cx="189.5" cy="94.1" r="4.1" />
<circle cx="200.5" cy="94.1" r="4.1" />
<circle cx="211.5" cy="94.1" r="4.1" />
<circle cx="222.5" cy="94.1" r="4.1" />
<circle cx="233.5" cy="94.1" r="4.1" />
<circle cx="244.5" cy="94.1" r="4.1" />
<circle cx="255.5" cy="94.1" r="4.1" />
<circle cx="266.5" cy="94.1" r="4.1" />
<circle cx="277.5" cy="94.1" r="4.1" />
<circle cx="431.5" cy="94.1" r="4.1" />
<circle cx="442.5" cy="94.1" r="4.1" />
<circle cx="453.5" cy="94.1" r="4.1" />
<circle cx="464.5" cy="94.1" r="4.1" />
<circle cx="475.5" cy="94.1" r="4.1" />
<circle cx="486.5" cy="94.1" r="4.1" />
<circle cx="497.5" cy="94.1" r="4.1" />
<circle cx="508.5" cy="94.1" r="4.1" />
<circle cx="519.5" cy="94.1" r="4.1" />
<circle cx="530.5" cy="94.1" r="4.1" />
<circle cx="541.5" cy="94.1" r="4.1" />
<circle cx="552.5" cy="94.1" r="4.1" />
<circle cx="563.5" cy="94.1" r="4.1" />
<circle cx="574.5" cy="94.1" r="4.1" />
<circle cx="585.5" cy="94.1" r="4.1" />
<circle cx="596.5" cy="94.1" r="4.1" />
<circle cx="607.5" cy="94.1" r="4.1" />
<circle cx="618.5" cy="94.1" r="4.1" />
<circle cx="629.5" cy="94.1" r="4.1" />
<circle cx="640.5" cy="94.1" r="4.1" />
<circle cx="651.5" cy="94.1" r="4.1" />
<circle cx="662.5" cy="94.1" r="4.1" />
<circle cx="673.5" cy="94.1" r="4.1" />
<circle cx="684.5" cy="94.1" r="4.1" />
<circle cx="695.5" cy="94.1" r="4.1" />
<circle cx="706.5" cy="94.1" r="4.1" />
<circle cx="717.5" cy="94.1" r="4.1" />
<circle cx="728.5" cy="94.1" r="4.1" />
<circle cx="739.5" cy="94.1" r="4.1" />
<circle cx="750.5" cy="94.1" r="4.1" />
<circle cx="761.5" cy="94.1" r="4.1" />
<circle cx="772.5" cy="94.1" r="4.1" />
<circle cx="783.5" cy="94.1" r="4.1" />
<circle cx="794.5" cy="94.1" r="4.1" />
<circle cx="805.5" cy="94.1" r="4.1" />
<circle cx="816.5" cy="94.1" r="4.1" />
<circle cx="827.5" cy="94.1" r="4.1" />
<circle cx="838.5" cy="94.1" r="4.1" />
<circle cx="849.5" cy="94.1" r="4.1" />
<circle cx="140.0" cy="103.7" r="4.1" />
<circle cx="151.0" cy="103.7" r="4.1" />
<circle cx="162.0" cy="103.7" r="4.1" />
<circle cx="173.0" cy="103.7" r="4.1" />
<circle cx="184.0" cy="103.7" r="4.1" />
<circle cx="195.0" cy="103.7" r="4.1" />
<circle cx="206.0" cy="103.7" r="4.1" />
<circle cx="217.0" cy="103.7" r="4.1" />
<circle cx="228.0" cy="103.7" r="4.1" />
<circle cx="239.0" cy="103.7" r="4.1" />
<circle cx="250.0" cy="103.7" r="4.1" />
<circle cx="261.0" cy="103.7" r="4.1" />
<circle cx="272.0" cy="103.7" r="4.1" />
<circle cx="283.0" cy="103.7" r="4.1" />
<circle cx="294.0" cy="103.7" r="4.1" />
<circle cx="305.0" cy="103.7" r="4.1" />
<circle cx="437.0" cy="103.7" r="4.1" />
<circle cx="448.0" cy="103.7" r="4.1" />
<circle cx="459.0" cy="103.7" r="4.1" />
<circle cx="470.0" cy="103.7" r="4.1" />
<circle cx="481.0" cy="103.7" r="4.1" />
<circle cx="492.0" cy="103.7" r="4.1" />
<circle cx="503.0" cy="103.7" r="4.1" />
<circle cx="514.0" cy="103.7" r="4.1" />
<circle cx="525.0" cy="103.7" r="4.1" />
<circle cx="536.0" cy="103.7" r="4.1" />
<circle cx="547.0" cy="103.7" r="4.1" />
<circle cx="558.0" cy="103.7" r="4.1" />
<circle cx="569.0" cy="103.7" r="4.1" />
<circle cx="580.0" cy="103.7" r="4.1" />
<circle cx="591.0" cy="103.7" r="4.1" />
<circle cx="602.0" cy="103.7" r="4.1" />
<circle cx="613.0" cy="103.7" r="4.1" />
<circle cx="624.0" cy="103.7" r="4.1" />
<circle cx="635.0" cy="103.7" r="4.1" />
<circle cx="646.0" cy="103.7" r="4.1" />
<circle cx="657.0" cy="103.7" r="4.1" />
<circle cx="668.0" cy="103.7" r="4.1" />
<circle cx="679.0" cy="103.7" r="4.1" />
<circle cx="690.0" cy="103.7" r="4.1" />
<circle cx="701.0" cy="103.7" r="4.1" />
<circle cx="712.0" cy="103.7" r="4.1" />
<circle cx="723.0" cy="103.7" r="4.1" />
<circle cx="734.0" cy="103.7" r="4.1" />
<circle cx="745.0" cy="103.7" r="4.1" />
<circle cx="756.0" cy="103.7" r="4.1" />
<circle cx="767.0" cy="103.7" r="4.1" />
<circle cx="778.0" cy="103.7" r="4.1" />
<circle cx="789.0" cy="103.7" r="4.1" />
<circle cx="800.0" cy="103.7" r="4.1" />
<circle cx="811.0" cy="103.7" r="4.1" />
<circle cx="822.0" cy="103.7" r="4.1" />
<circle cx="145.5" cy="113.3" r="4.1" />
<circle cx="156.5" cy="113.3" r="4.1" />
<circle cx="167.5" cy="113.3" r="4.1" />
<circle cx="178.5" cy="113.3" r="4.1" />
<circle cx="189.5" cy="113.3" r="4.1" />
<circle cx="200.5" cy="113.3" r="4.1" />
<circle cx="211.5" cy="113.3" r="4.1" />
<circle cx="222.5" cy="113.3" r="4.1" />
<circle cx="233.5" cy="113.3" r="4.1" />
<circle cx="244.5" cy="113.3" r="4.1" />
<circle cx="255.5" cy="113.3" r="4.1" />
<circle cx="266.5" cy="113.3" r="4.1" />
<circle cx="277.5" cy="113.3" r="4.1" />
<circle cx="288.5" cy="113.3" r="4.1" />
<circle cx="299.5" cy="113.3" r="4.1" />
<circle cx="431.5" cy="113.3" r="4.1" />
<circle cx="442.5" cy="113.3" r="4.1" />
<circle cx="453.5" cy="113.3" r="4.1" />
<circle cx="464.5" cy="113.3" r="4.1" />
<circle cx="475.5" cy="113.3" r="4.1" />
<circle cx="486.5" cy="113.3" r="4.1" />
<circle cx="497.5" cy="113.3" r="4.1" />
<circle cx="508.5" cy="113.3" r="4.1" />
<circle cx="530.5" cy="113.3" r="4.1" />
<circle cx="541.5" cy="113.3" r="4.1" />
<circle cx="552.5" cy="113.3" r="4.1" />
<circle cx="563.5" cy="113.3" r="4.1" />
<circle cx="574.5" cy="113.3" r="4.1" />
<circle cx="585.5" cy="113.3" r="4.1" />
<circle cx="596.5" cy="113.3" r="4.1" />
<circle cx="607.5" cy="113.3" r="4.1" />
<circle cx="618.5" cy="113.3" r="4.1" />
<circle cx="629.5" cy="113.3" r="4.1" />
<circle cx="640.5" cy="113.3" r="4.1" />
<circle cx="651.5" cy="113.3" r="4.1" />
<circle cx="662.5" cy="113.3" r="4.1" />
<circle cx="673.5" cy="113.3" r="4.1" />
<circle cx="684.5" cy="113.3" r="4.1" />
<circle cx="695.5" cy="113.3" r="4.1" />
<circle cx="706.5" cy="113.3" r="4.1" />
<circle cx="717.5" cy="113.3" r="4.1" />
<circle cx="728.5" cy="113.3" r="4.1" />
<circle cx="739.5" cy="113.3" r="4.1" />
<circle cx="750.5" cy="113.3" r="4.1" />
<circle cx="761.5" cy="113.3" r="4.1" />
<circle cx="772.5" cy="113.3" r="4.1" />
<circle cx="783.5" cy="113.3" r="4.1" />
<circle cx="794.5" cy="113.3" r="4.1" />
<circle cx="151.0" cy="122.8" r="4.1" />
<circle cx="162.0" cy="122.8" r="4.1" />
<circle cx="173.0" cy="122.8" r="4.1" />
<circle cx="184.0" cy="122.8" r="4.1" />
<circle cx="195.0" cy="122.8" r="4.1" />
<circle cx="206.0" cy="122.8" r="4.1" />
<circle cx="217.0" cy="122.8" r="4.1" />
<circle cx="228.0" cy="122.8" r="4.1" />
<circle cx="239.0" cy="122.8" r="4.1" />
<circle cx="250.0" cy="122.8" r="4.1" />
<circle cx="261.0" cy="122.8" r="4.1" />
<circle cx="272.0" cy="122.8" r="4.1" />
<circle cx="283.0" cy="122.8" r="4.1" />
<circle cx="492.0" cy="122.8" r="4.1" />
<circle cx="547.0" cy="122.8" r="4.1" />
<circle cx="558.0" cy="122.8" r="4.1" />
<circle cx="569.0" cy="122.8" r="4.1" />
<circle cx="580.0" cy="122.8" r="4.1" />
<circle cx="591.0" cy="122.8" r="4.1" />
<circle cx="602.0" cy="122.8" r="4.1" />
<circle cx="613.0" cy="122.8" r="4.1" />
<circle cx="624.0" cy="122.8" r="4.1" />
<circle cx="635.0" cy="122.8" r="4.1" />
<circle cx="646.0" cy="122.8" r="4.1" />
<circle cx="657.0" cy="122.8" r="4.1" />
<circle cx="668.0" cy="122.8" r="4.1" />
<circle cx="679.0" cy="122.8" r="4.1" />
<circle cx="690.0" cy="122.8" r="4.1" />
<circle cx="701.0" cy="122.8" r="4.1" />
<circle cx="712.0" cy="122.8" r="4.1" />
<circle cx="723.0" cy="122.8" r="4.1" />
<circle cx="734.0" cy="122.8" r="4.1" />
<circle cx="745.0" cy="122.8" r="4.1" />
<circle cx="756.0" cy="122.8" r="4.1" />
<circle cx="767.0" cy="122.8" r="4.1" />
<circle cx="778.0" cy="122.8" r="4.1" />
<circle cx="789.0" cy="122.8" r="4.1" />
<circle cx="800.0" cy="122.8" r="4.1" />
<circle cx="156.5" cy="132.4" r="4.1" />
<circle cx="167.5" cy="132.4" r="4.1" />
<circle cx="178.5" cy="132.4" r="4.1" />
<circle cx="189.5" cy="132.4" r="4.1" />
<circle cx="200.5" cy="132.4" r="4.1" />
<circle cx="211.5" cy="132.4" r="4.1" />
<circle cx="222.5" cy="132.4" r="4.1" />
<circle cx="233.5" cy="132.4" r="4.1" />
<circle cx="244.5" cy="132.4" r="4.1" />
<circle cx="255.5" cy="132.4" r="4.1" />
<circle cx="266.5" cy="132.4" r="4.1" />
<circle cx="563.5" cy="132.4" r="4.1" />
<circle cx="574.5" cy="132.4" r="4.1" />
<circle cx="585.5" cy="132.4" r="4.1" />
<circle cx="596.5" cy="132.4" r="4.1" />
<circle cx="607.5" cy="132.4" r="4.1" />
<circle cx="618.5" cy="132.4" r="4.1" />
<circle cx="629.5" cy="132.4" r="4.1" />
<circle cx="640.5" cy="132.4" r="4.1" />
<circle cx="651.5" cy="132.4" r="4.1" />
<circle cx="662.5" cy="132.4" r="4.1" />
<circle cx="673.5" cy="132.4" r="4.1" />
<circle cx="684.5" cy="132.4" r="4.1" />
<circle cx="695.5" cy="132.4" r="4.1" />
<circle cx="706.5" cy="132.4" r="4.1" />
<circle cx="717.5" cy="132.4" r="4.1" />
<circle cx="728.5" cy="132.4" r="4.1" />
<circle cx="739.5" cy="132.4" r="4.1" />
<circle cx="750.5" cy="132.4" r="4.1" />
<circle cx="761.5" cy="132.4" r="4.1" />
<circle cx="772.5" cy="132.4" r="4.1" />
<circle cx="783.5" cy="132.4" r="4.1" />
<circle cx="162.0" cy="142.0" r="4.1" />
<circle cx="173.0" cy="142.0" r="4.1" />
<circle cx="184.0" cy="142.0" r="4.1" />
<circle cx="195.0" cy="142.0" r="4.1" />
<circle cx="206.0" cy="142.0" r="4.1" />
<circle cx="217.0" cy="142.0" r="4.1" />
<circle cx="228.0" cy="142.0" r="4.1" />
<circle cx="239.0" cy="142.0" r="4.1" />
<circle cx="250.0" cy="142.0" r="4.1" />
<circle cx="569.0" cy="142.0" r="4.1" />
<circle cx="580.0" cy="142.0" r="4.1" />
<circle cx="591.0" cy="142.0" r="4.1" />
<circle cx="602.0" cy="142.0" r="4.1" />
<circle cx="613.0" cy="142.0" r="4.1" />
<circle cx="624.0" cy="142.0" r="4.1" />
<circle cx="635.0" cy="142.0" r="4.1" />
<circle cx="646.0" cy="142.0" r="4.1" />
<circle cx="657.0" cy="142.0" r="4.1" />
<circle cx="668.0" cy="142.0" r="4.1" />
<circle cx="679.0" cy="142.0" r="4.1" />
<circle cx="690.0" cy="142.0" r="4.1" />
<circle cx="701.0" cy="142.0" r="4.1" />
<circle cx="712.0" cy="142.0" r="4.1" />
<circle cx="723.0" cy="142.0" r="4.1" />
<circle cx="734.0" cy="142.0" r="4.1" />
<circle cx="745.0" cy="142.0" r="4.1" />
<circle cx="756.0" cy="142.0" r="4.1" />
<circle cx="767.0" cy="142.0" r="4.1" />
<circle cx="167.5" cy="151.5" r="4.1" />
<circle cx="178.5" cy="151.5" r="4.1" />
<circle cx="189.5" cy="151.5" r="4.1" />
<circle cx="200.5" cy="151.5" r="4.1" />
<circle cx="211.5" cy="151.5" r="4.1" />
<circle cx="222.5" cy="151.5" r="4.1" />
<circle cx="233.5" cy="151.5" r="4.1" />
<circle cx="244.5" cy="151.5" r="4.1" />
<circle cx="464.5" cy="151.5" r="4.1" />
<circle cx="475.5" cy="151.5" r="4.1" />
<circle cx="486.5" cy="151.5" r="4.1" />
<circle cx="497.5" cy="151.5" r="4.1" />
<circle cx="508.5" cy="151.5" r="4.1" />
<circle cx="519.5" cy="151.5" r="4.1" />
<circle cx="530.5" cy="151.5" r="4.1" />
<circle cx="574.5" cy="151.5" r="4.1" />
<circle cx="585.5" cy="151.5" r="4.1" />
<circle cx="596.5" cy="151.5" r="4.1" />
<circle cx="607.5" cy="151.5" r="4.1" />
<circle cx="618.5" cy="151.5" r="4.1" />
<circle cx="629.5" cy="151.5" r="4.1" />
<circle cx="640.5" cy="151.5" r="4.1" />
<circle cx="651.5" cy="151.5" r="4.1" />
<circle cx="662.5" cy="151.5" r="4.1" />
<circle cx="673.5" cy="151.5" r="4.1" />
<circle cx="684.5" cy="151.5" r="4.1" />
<circle cx="695.5" cy="151.5" r="4.1" />
<circle cx="706.5" cy="151.5" r="4.1" />
<circle cx="717.5" cy="151.5" r="4.1" />
<circle cx="728.5" cy="151.5" r="4.1" />
<circle cx="739.5" cy="151.5" r="4.1" />
<circle cx="750.5" cy="151.5" r="4.1" />
<circle cx="184.0" cy="161.1" r="4.1" />
<circle cx="195.0" cy="161.1" r="4.1" />
<circle cx="206.0" cy="161.1" r="4.1" />
<circle cx="217.0" cy="161.1" r="4.1" />
<circle cx="228.0" cy="161.1" r="4.1" />
<circle cx="239.0" cy="161.1" r="4.1" />
<circle cx="250.0" cy="161.1" r="4.1" />
<circle cx="448.0" cy="161.1" r="4.1" />
<circle cx="459.0" cy="161.1" r="4.1" />
<circle cx="470.0" cy="161.1" r="4.1" />
<circle cx="481.0" cy="161.1" r="4.1" />
<circle cx="492.0" cy="161.1" r="4.1" />
<circle cx="503.0" cy="161.1" r="4.1" />
<circle cx="514.0" cy="161.1" r="4.1" />
<circle cx="525.0" cy="161.1" r="4.1" />
<circle cx="602.0" cy="161.1" r="4.1" />
<circle cx="613.0" cy="161.1" r="4.1" />
<circle cx="624.0" cy="161.1" r="4.1" />
<circle cx="635.0" cy="161.1" r="4.1" />
<circle cx="646.0" cy="161.1" r="4.1" />
<circle cx="657.0" cy="161.1" r="4.1" />
<circle cx="668.0" cy="161.1" r="4.1" />
<circle cx="679.0" cy="161.1" r="4.1" />
<circle cx="690.0" cy="161.1" r="4.1" />
<circle cx="701.0" cy="161.1" r="4.1" />
<circle cx="712.0" cy="161.1" r="4.1" />
<circle cx="723.0" cy="161.1" r="4.1" />
<circle cx="734.0" cy="161.1" r="4.1" />
<circle cx="189.5" cy="170.7" r="4.1" />
<circle cx="200.5" cy="170.7" r="4.1" />
<circle cx="211.5" cy="170.7" r="4.1" />
<circle cx="222.5" cy="170.7" r="4.1" />
<circle cx="431.5" cy="170.7" r="4.1" />
<circle cx="442.5" cy="170.7" r="4.1" />
<circle cx="453.5" cy="170.7" r="4.1" />
<circle cx="464.5" cy="170.7" r="4.1" />
<circle cx="475.5" cy="170.7" r="4.1" />
<circle cx="486.5" cy="170.7" r="4.1" />
<circle cx="497.5" cy="170.7" r="4.1" />
<circle cx="508.5" cy="170.7" r="4.1" />
<circle cx="519.5" cy="170.7" r="4.1" />
<circle cx="530.5" cy="170.7" r="4.1" />
<circle cx="629.5" cy="170.7" r="4.1" />
<circle cx="640.5" cy="170.7" r="4.1" />
<circle cx="651.5" cy="170.7" r="4.1" />
<circle cx="662.5" cy="170.7" r="4.1" />
<circle cx="673.5" cy="170.7" r="4.1" />
<circle cx="684.5" cy="170.7" r="4.1" />
<circle cx="695.5" cy="170.7" r="4.1" />
<circle cx="706.5" cy="170.7" r="4.1" />
<circle cx="717.5" cy="170.7" r="4.1" />
<circle cx="426.0" cy="180.3" r="4.1" />
<circle cx="437.0" cy="180.3" r="4.1" />
<circle cx="448.0" cy="180.3" r="4.1" />
<circle cx="459.0" cy="180.3" r="4.1" />
<circle cx="470.0" cy="180.3" r="4.1" />
<circle cx="481.0" cy="180.3" r="4.1" />
<circle cx="492.0" cy="180.3" r="4.1" />
<circle cx="503.0" cy="180.3" r="4.1" />
<circle cx="514.0" cy="180.3" r="4.1" />
<circle cx="525.0" cy="180.3" r="4.1" />
<circle cx="536.0" cy="180.3" r="4.1" />
<circle cx="635.0" cy="180.3" r="4.1" />
<circle cx="646.0" cy="180.3" r="4.1" />
<circle cx="657.0" cy="180.3" r="4.1" />
<circle cx="668.0" cy="180.3" r="4.1" />
<circle cx="679.0" cy="180.3" r="4.1" />
<circle cx="690.0" cy="180.3" r="4.1" />
<circle cx="701.0" cy="180.3" r="4.1" />
<circle cx="712.0" cy="180.3" r="4.1" />
<circle cx="723.0" cy="180.3" r="4.1" />
<circle cx="734.0" cy="180.3" r="4.1" />
<circle cx="745.0" cy="180.3" r="4.1" />
<circle cx="409.5" cy="189.8" r="4.1" />
<circle cx="420.5" cy="189.8" r="4.1" />
<circle cx="431.5" cy="189.8" r="4.1" />
<circle cx="442.5" cy="189.8" r="4.1" />
<circle cx="453.5" cy="189.8" r="4.1" />
<circle cx="464.5" cy="189.8" r="4.1" />
<circle cx="475.5" cy="189.8" r="4.1" />
<circle cx="486.5" cy="189.8" r="4.1" />
<circle cx="497.5" cy="189.8" r="4.1" />
<circle cx="508.5" cy="189.8" r="4.1" />
<circle cx="519.5" cy="189.8" r="4.1" />
<circle cx="530.5" cy="189.8" r="4.1" />
<circle cx="541.5" cy="189.8" r="4.1" />
<circle cx="640.5" cy="189.8" r="4.1" />
<circle cx="651.5" cy="189.8" r="4.1" />
<circle cx="662.5" cy="189.8" r="4.1" />
<circle cx="673.5" cy="189.8" r="4.1" />
<circle cx="695.5" cy="189.8" r="4.1" />
<circle cx="706.5" cy="189.8" r="4.1" />
<circle cx="717.5" cy="189.8" r="4.1" />
<circle cx="728.5" cy="189.8" r="4.1" />
<circle cx="739.5" cy="189.8" r="4.1" />
<circle cx="750.5" cy="189.8" r="4.1" />
<circle cx="426.0" cy="199.4" r="4.1" />
<circle cx="437.0" cy="199.4" r="4.1" />
<circle cx="448.0" cy="199.4" r="4.1" />
<circle cx="459.0" cy="199.4" r="4.1" />
<circle cx="470.0" cy="199.4" r="4.1" />
<circle cx="481.0" cy="199.4" r="4.1" />
<circle cx="492.0" cy="199.4" r="4.1" />
<circle cx="503.0" cy="199.4" r="4.1" />
<circle cx="514.0" cy="199.4" r="4.1" />
<circle cx="525.0" cy="199.4" r="4.1" />
<circle cx="536.0" cy="199.4" r="4.1" />
<circle cx="547.0" cy="199.4" r="4.1" />
<circle cx="558.0" cy="199.4" r="4.1" />
<circle cx="569.0" cy="199.4" r="4.1" />
<circle cx="646.0" cy="199.4" r="4.1" />
<circle cx="657.0" cy="199.4" r="4.1" />
<circle cx="723.0" cy="199.4" r="4.1" />
<circle cx="734.0" cy="199.4" r="4.1" />
<circle cx="745.0" cy="199.4" r="4.1" />
<circle cx="756.0" cy="199.4" r="4.1" />
<circle cx="255.5" cy="209.0" r="4.1" />
<circle cx="288.5" cy="209.0" r="4.1" />
<circle cx="299.5" cy="209.0" r="4.1" />
<circle cx="431.5" cy="209.0" r="4.1" />
<circle cx="442.5" cy="209.0" r="4.1" />
<circle cx="453.5" cy="209.0" r="4.1" />
<circle cx="464.5" cy="209.0" r="4.1" />
<circle cx="475.5" cy="209.0" r="4.1" />
<circle cx="486.5" cy="209.0" r="4.1" />
<circle cx="497.5" cy="209.0" r="4.1" />
<circle cx="508.5" cy="209.0" r="4.1" />
<circle cx="519.5" cy="209.0" r="4.1" />
<circle cx="530.5" cy="209.0" r="4.1" />
<circle cx="541.5" cy="209.0" r="4.1" />
<circle cx="552.5" cy="209.0" r="4.1" />
<circle cx="563.5" cy="209.0" r="4.1" />
<circle cx="250.0" cy="218.5" r="4.1" />
<circle cx="261.0" cy="218.5" r="4.1" />
<circle cx="272.0" cy="218.5" r="4.1" />
<circle cx="283.0" cy="218.5" r="4.1" />
<circle cx="294.0" cy="218.5" r="4.1" />
<circle cx="305.0" cy="218.5" r="4.1" />
<circle cx="316.0" cy="218.5" r="4.1" />
<circle cx="481.0" cy="218.5" r="4.1" />
<circle cx="492.0" cy="218.5" r="4.1" />
<circle cx="503.0" cy="218.5" r="4.1" />
<circle cx="514.0" cy="218.5" r="4.1" />
<circle cx="525.0" cy="218.5" r="4.1" />
<circle cx="536.0" cy="218.5" r="4.1" />
<circle cx="547.0" cy="218.5" r="4.1" />
<circle cx="558.0" cy="218.5" r="4.1" />
<circle cx="569.0" cy="218.5" r="4.1" />
<circle cx="255.5" cy="228.1" r="4.1" />
<circle cx="266.5" cy="228.1" r="4.1" />
<circle cx="277.5" cy="228.1" r="4.1" />
<circle cx="288.5" cy="228.1" r="4.1" />
<circle cx="299.5" cy="228.1" r="4.1" />
<circle cx="310.5" cy="228.1" r="4.1" />
<circle cx="321.5" cy="228.1" r="4.1" />
<circle cx="332.5" cy="228.1" r="4.1" />
<circle cx="475.5" cy="228.1" r="4.1" />
<circle cx="486.5" cy="228.1" r="4.1" />
<circle cx="497.5" cy="228.1" r="4.1" />
<circle cx="508.5" cy="228.1" r="4.1" />
<circle cx="519.5" cy="228.1" r="4.1" />
<circle cx="530.5" cy="228.1" r="4.1" />
<circle cx="541.5" cy="228.1" r="4.1" />
<circle cx="552.5" cy="228.1" r="4.1" />
<circle cx="563.5" cy="228.1" r="4.1" />
<circle cx="250.0" cy="237.7" r="4.1" />
<circle cx="261.0" cy="237.7" r="4.1" />
<circle cx="272.0" cy="237.7" r="4.1" />
<circle cx="283.0" cy="237.7" r="4.1" />
<circle cx="294.0" cy="237.7" r="4.1" />
<circle cx="305.0" cy="237.7" r="4.1" />
<circle cx="316.0" cy="237.7" r="4.1" />
<circle cx="327.0" cy="237.7" r="4.1" />
<circle cx="338.0" cy="237.7" r="4.1" />
<circle cx="349.0" cy="237.7" r="4.1" />
<circle cx="360.0" cy="237.7" r="4.1" />
<circle cx="481.0" cy="237.7" r="4.1" />
<circle cx="492.0" cy="237.7" r="4.1" />
<circle cx="503.0" cy="237.7" r="4.1" />
<circle cx="514.0" cy="237.7" r="4.1" />
<circle cx="525.0" cy="237.7" r="4.1" />
<circle cx="536.0" cy="237.7" r="4.1" />
<circle cx="547.0" cy="237.7" r="4.1" />
<circle cx="558.0" cy="237.7" r="4.1" />
<circle cx="255.5" cy="247.2" r="4.1" />
<circle cx="266.5" cy="247.2" r="4.1" />
<circle cx="277.5" cy="247.2" r="4.1" />
<circle cx="288.5" cy="247.2" r="4.1" />
<circle cx="299.5" cy="247.2" r="4.1" />
<circle cx="310.5" cy="247.2" r="4.1" />
<circle cx="321.5" cy="247.2" r="4.1" />
<circle cx="332.5" cy="247.2" r="4.1" />
<circle cx="343.5" cy="247.2" r="4.1" />
<circle cx="354.5" cy="247.2" r="4.1" />
<circle cx="475.5" cy="247.2" r="4.1" />
<circle cx="486.5" cy="247.2" r="4.1" />
<circle cx="497.5" cy="247.2" r="4.1" />
<circle cx="508.5" cy="247.2" r="4.1" />
<circle cx="519.5" cy="247.2" r="4.1" />
<circle cx="530.5" cy="247.2" r="4.1" />
<circle cx="541.5" cy="247.2" r="4.1" />
<circle cx="552.5" cy="247.2" r="4.1" />
<circle cx="261.0" cy="256.8" r="4.1" />
<circle cx="272.0" cy="256.8" r="4.1" />
<circle cx="283.0" cy="256.8" r="4.1" />
<circle cx="294.0" cy="256.8" r="4.1" />
<circle cx="305.0" cy="256.8" r="4.1" />
<circle cx="316.0" cy="256.8" r="4.1" />
<circle cx="327.0" cy="256.8" r="4.1" />
<circle cx="338.0" cy="256.8" r="4.1" />
<circle cx="349.0" cy="256.8" r="4.1" />
<circle cx="481.0" cy="256.8" r="4.1" />
<circle cx="492.0" cy="256.8" r="4.1" />
<circle cx="503.0" cy="256.8" r="4.1" />
<circle cx="514.0" cy="256.8" r="4.1" />
<circle cx="525.0" cy="256.8" r="4.1" />
<circle cx="536.0" cy="256.8" r="4.1" />
<circle cx="547.0" cy="256.8" r="4.1" />
<circle cx="558.0" cy="256.8" r="4.1" />
<circle cx="778.0" cy="256.8" r="4.1" />
<circle cx="789.0" cy="256.8" r="4.1" />
<circle cx="800.0" cy="256.8" r="4.1" />
<circle cx="255.5" cy="266.4" r="4.1" />
<circle cx="266.5" cy="266.4" r="4.1" />
<circle cx="277.5" cy="266.4" r="4.1" />
<circle cx="288.5" cy="266.4" r="4.1" />
<circle cx="299.5" cy="266.4" r="4.1" />
<circle cx="310.5" cy="266.4" r="4.1" />
<circle cx="321.5" cy="266.4" r="4.1" />
<circle cx="332.5" cy="266.4" r="4.1" />
<circle cx="343.5" cy="266.4" r="4.1" />
<circle cx="486.5" cy="266.4" r="4.1" />
<circle cx="497.5" cy="266.4" r="4.1" />
<circle cx="508.5" cy="266.4" r="4.1" />
<circle cx="519.5" cy="266.4" r="4.1" />
<circle cx="530.5" cy="266.4" r="4.1" />
<circle cx="541.5" cy="266.4" r="4.1" />
<circle cx="563.5" cy="266.4" r="4.1" />
<circle cx="761.5" cy="266.4" r="4.1" />
<circle cx="772.5" cy="266.4" r="4.1" />
<circle cx="783.5" cy="266.4" r="4.1" />
<circle cx="794.5" cy="266.4" r="4.1" />
<circle cx="805.5" cy="266.4" r="4.1" />
<circle cx="261.0" cy="276.0" r="4.1" />
<circle cx="272.0" cy="276.0" r="4.1" />
<circle cx="283.0" cy="276.0" r="4.1" />
<circle cx="294.0" cy="276.0" r="4.1" />
<circle cx="305.0" cy="276.0" r="4.1" />
<circle cx="316.0" cy="276.0" r="4.1" />
<circle cx="327.0" cy="276.0" r="4.1" />
<circle cx="338.0" cy="276.0" r="4.1" />
<circle cx="481.0" cy="276.0" r="4.1" />
<circle cx="492.0" cy="276.0" r="4.1" />
<circle cx="503.0" cy="276.0" r="4.1" />
<circle cx="514.0" cy="276.0" r="4.1" />
<circle cx="525.0" cy="276.0" r="4.1" />
<circle cx="536.0" cy="276.0" r="4.1" />
<circle cx="569.0" cy="276.0" r="4.1" />
<circle cx="745.0" cy="276.0" r="4.1" />
<circle cx="756.0" cy="276.0" r="4.1" />
<circle cx="767.0" cy="276.0" r="4.1" />
<circle cx="778.0" cy="276.0" r="4.1" />
<circle cx="789.0" cy="276.0" r="4.1" />
<circle cx="800.0" cy="276.0" r="4.1" />
<circle cx="811.0" cy="276.0" r="4.1" />
<circle cx="266.5" cy="285.5" r="4.1" />
<circle cx="277.5" cy="285.5" r="4.1" />
<circle cx="288.5" cy="285.5" r="4.1" />
<circle cx="299.5" cy="285.5" r="4.1" />
<circle cx="310.5" cy="285.5" r="4.1" />
<circle cx="321.5" cy="285.5" r="4.1" />
<circle cx="332.5" cy="285.5" r="4.1" />
<circle cx="486.5" cy="285.5" r="4.1" />
<circle cx="497.5" cy="285.5" r="4.1" />
<circle cx="508.5" cy="285.5" r="4.1" />
<circle cx="519.5" cy="285.5" r="4.1" />
<circle cx="530.5" cy="285.5" r="4.1" />
<circle cx="563.5" cy="285.5" r="4.1" />
<circle cx="739.5" cy="285.5" r="4.1" />
<circle cx="750.5" cy="285.5" r="4.1" />
<circle cx="761.5" cy="285.5" r="4.1" />
<circle cx="772.5" cy="285.5" r="4.1" />
<circle cx="783.5" cy="285.5" r="4.1" />
<circle cx="794.5" cy="285.5" r="4.1" />
<circle cx="805.5" cy="285.5" r="4.1" />
<circle cx="816.5" cy="285.5" r="4.1" />
<circle cx="272.0" cy="295.1" r="4.1" />
<circle cx="283.0" cy="295.1" r="4.1" />
<circle cx="294.0" cy="295.1" r="4.1" />
<circle cx="305.0" cy="295.1" r="4.1" />
<circle cx="316.0" cy="295.1" r="4.1" />
<circle cx="327.0" cy="295.1" r="4.1" />
<circle cx="492.0" cy="295.1" r="4.1" />
<circle cx="503.0" cy="295.1" r="4.1" />
<circle cx="514.0" cy="295.1" r="4.1" />
<circle cx="525.0" cy="295.1" r="4.1" />
<circle cx="734.0" cy="295.1" r="4.1" />
<circle cx="745.0" cy="295.1" r="4.1" />
<circle cx="756.0" cy="295.1" r="4.1" />
<circle cx="767.0" cy="295.1" r="4.1" />
<circle cx="778.0" cy="295.1" r="4.1" />
<circle cx="789.0" cy="295.1" r="4.1" />
<circle cx="800.0" cy="295.1" r="4.1" />
<circle cx="811.0" cy="295.1" r="4.1" />
<circle cx="822.0" cy="295.1" r="4.1" />
<circle cx="277.5" cy="304.7" r="4.1" />
<circle cx="288.5" cy="304.7" r="4.1" />
<circle cx="299.5" cy="304.7" r="4.1" />
<circle cx="310.5" cy="304.7" r="4.1" />
<circle cx="497.5" cy="304.7" r="4.1" />
<circle cx="508.5" cy="304.7" r="4.1" />
<circle cx="519.5" cy="304.7" r="4.1" />
<circle cx="739.5" cy="304.7" r="4.1" />
<circle cx="750.5" cy="304.7" r="4.1" />
<circle cx="761.5" cy="304.7" r="4.1" />
<circle cx="772.5" cy="304.7" r="4.1" />
<circle cx="783.5" cy="304.7" r="4.1" />
<circle cx="794.5" cy="304.7" r="4.1" />
<circle cx="805.5" cy="304.7" r="4.1" />
<circle cx="816.5" cy="304.7" r="4.1" />
<circle cx="827.5" cy="304.7" r="4.1" />
<circle cx="272.0" cy="314.2" r="4.1" />
<circle cx="283.0" cy="314.2" r="4.1" />
<circle cx="294.0" cy="314.2" r="4.1" />
<circle cx="800.0" cy="314.2" r="4.1" />
<circle cx="811.0" cy="314.2" r="4.1" />
<circle cx="822.0" cy="314.2" r="4.1" />
<circle cx="277.5" cy="323.8" r="4.1" />
<circle cx="288.5" cy="323.8" r="4.1" />
<circle cx="871.5" cy="323.8" r="4.1" />
<circle cx="882.5" cy="323.8" r="4.1" />
<circle cx="272.0" cy="333.4" r="4.1" />
<circle cx="283.0" cy="333.4" r="4.1" />
<circle cx="877.0" cy="333.4" r="4.1" />
<circle cx="277.5" cy="342.9" r="4.1" />
</g>
<rect x="2" y="2" width="896" height="446" rx="24" fill="none" stroke="#a8471f" stroke-width="3" opacity="0.8" />
</svg>